<?xml version="1.0" encoding="UTF-8"?>
<!-- Created with Inkscape (http://www.inkscape.org/) -->
<svg width="421.2" height="297.2" version="1.1" viewBox="0 0 421.2 297.2" xmlns="http://www.w3.org/2000/svg" xmlns:cc="http://creativecommons.org/ns#" xmlns:dc="http://purl.org/dc/elements/1.1/" xmlns:rdf="http://www.w3.org/1999/02/22-rdf-syntax-ns#">
 <metadata>
  <rdf:RDF>
   <cc:Work rdf:about="">
    <dc:format>image/svg+xml</dc:format>
    <dc:type rdf:resource="http://purl.org/dc/dcmitype/StillImage"/>
    <dc:title/>
   </cc:Work>
  </rdf:RDF>
 </metadata>
 <path d="m64.823 291.35c-1.5349-.2259-2.9721-.86441-4.1435-1.8409l-.34761-.28975.18296-.21177c.10063-.11648.26871-.31252.37351-.43566l.19055-.22388-.28906-.30228c-.15898-.16626-.36943-.40976-.46765-.54111-1.9382-2.5918-1.8817-6.0831.13936-8.609.46715-.58384 1.2567-1.2594 1.9343-1.6549.87043-.50811 1.9846-.86111 2.9295-.92819l.34138-.0242.01035-.56758.01034-.56759.46979.0114c2.6873.0651 5.1413 1.42 6.6257 3.6583 1.5925 2.4014 1.7875 5.4575.51249 8.0348-1.2326 2.4918-3.5548 4.1386-6.361 4.5112-.40281.0535-1.6986.0419-2.1113-.0188zm-.19787-1.5585c-.60493-.59818-1.1377-1.1068-1.1839-1.1302-.0462-.0234.42327.46659 1.0433 1.0889.61999.6223 1.1527 1.1309 1.1839 1.1302.03114-7e-4-.43833-.4907-1.0433-1.0889zm1.9227 1.059c.01059-.0171-.36028-.41035-.82415-.8738l-.8434-.84266-.3575-.0976c-.19663-.0537-.3575-.0904-.3575-.0815 0 .009.4355.4454.96777.96998l.96777.9538.21389.001c.11764 8e-4.22255-.0126.23314-.0297zm-1.1799-.024c0-.01-.5462-.55877-1.2138-1.2203-.77885-.77174-1.3007-1.2587-1.4563-1.359-.13341-.086-.30331-.2042-.37754-.26272-.1023-.0806-.14552-.0958-.17852-.0628-.02395.0239-.04354.0625-.04354.0856 0 .0616 2.7196 2.7547 2.8241 2.7966.09065.0363.44564.0544.44564.0227zm2.226-.12866c.01509-.0138-.30012-.35236-.70044-.75229l-.72787-.72716-.66618-.0288 1.6453 1.6037.2109-.0351c.116-.0193.22324-.0465.23833-.0603zm-3.2155.005c-.01363-.0155-.57842-.58105-1.2551-1.2568-.79923-.79812-1.2401-1.2129-1.2584-1.1839-.0302.0481 2.259 2.373 2.3942 2.4315.09541.0413.15134.0456.11929.009zm-1.5064-1.1971-1.124-1.11-.08668.10594c-.04767.0583-.08729.11451-.08803.12501-.000745.0105.40877.42779.91004.92734.8952.89212.91573.9096 1.1557.98416.13436.0417.26966.0763.30066.0767.03101.00048-.44944-.49865-1.0677-1.1092zm5.4446 1.0108c.11451-.0353.2082-.0817.2082-.10324 0-.0659-1.3218-1.3416-1.3706-1.3228-.02516.01-.14214.0296-.25996.0443s-.20861.0436-.20175.0642c.01722.0516 1.3533 1.3817 1.388 1.3817.01538 0 .12165-.0288.23616-.0641zm.85762-.34003.21721-.10324-1.2683-1.2652-.53791.1746.64788.64867c.35634.35678.66498.64863.68587.64856.02089-7e-5.13573-.0466.2552-.10335zm-7.1138-.66709c-.36135-.36179-.67299-.65247-.69254-.64596-.10766.0359-.0185.15684.45331.61492.42664.41423.76106.67599.87784.6871.01011.00096-.27726-.29426-.63861-.65606zm7.9709.20027.09075-.0629-1.2086-1.214-.25134.12395-.25134.12394 1.2554 1.257.13718-.0825c.07545-.0454.17802-.11085.22793-.14546zm-8.4967-.34994c-.28161-.28309-.32389-.31285-.37366-.26308-.04927.0493-.0494.0626-.0011.10901.07835.0753.6408.47327.66888.47327.01287 0-.11949-.14364-.29413-.3192zm9.1247-.0821.12378-.10608-1.196-1.1919-.20225.13894c-.11124.0764-.2099.14649-.21926.15571-.0094.009.2515.28566.57968.61432.58594.5868.59844.59664.6935.54635.05325-.0282.15251-.099.22059-.15732zm.65488-.56397c.06219-.0689.04243-.0937-.53507-.67032l-.59964-.59876-.3778.37212 1.1796 1.1813.13418-.10641c.0738-.0585.16323-.13861.19875-.17796zm-4.2927-.14412c1.0755-.23052 1.9932-.72921 2.7624-1.5011 1.1281-1.1322 1.6443-2.5084 1.5544-4.1444-.11759-2.1396-1.5863-4.04-3.6526-4.7262-.5413-.17977-.90883-.24789-1.491-.27637l-.50737-.0248-.01043-.53557-.01043-.53556-.10232.00069c-.2034.001-.88964.11347-1.2437.20317-2.3774.60226-4.2488 2.5561-4.7371 4.9457-.22426 1.0974-.17578 2.138.1491 3.2005.21263.69534.50988 1.294.93962 1.8926.22442.31255.69634.84444.74924.84444.02187 0 .61249-.66108.70017-.78369.0052-.007.13255.0927.28298.22216.80847.69584 1.8587 1.159 2.9259 1.2902.28609.0352 1.4163-.0127 1.6912-.0716zm-4.5977-2.2982c-.01378-.0138-.02506-.75793-.02506-1.6537v-1.6286h1.9919v3.3073h-.9709c-.53399 0-.98217-.0113-.99595-.0251zm1.4407-1.6474v-1.1087h-.902v2.2174h.902zm1.0899-1.5967v-3.2704h1.9923l-.0192 6.5207-1.9731.02zm1.2027 2.6952c0-.006-.15221-.16169-.33825-.34686l-.33825-.33669v.69373h.33825c.18604 0 .33825-.005.33825-.0102zm-.22404-1.3598-.45245-.45245v.75015l.8832.88582.01085-.36553.01085-.36554zm0-1.1275-.45245-.45245v.75015l.8832.88582.0217-.73106zm0-1.1275-.45245-.45245v.75015l.8832.88582.01085-.36554.01085-.36553zm7.5e-5-1.1274-.45253-.45251v.71257l.4416.44292.4416.44293.02182-.6934-.45251-.45251zm.44947-.35894v-.33824h-.69372l.33668.33824c.18518.18604.34126.33825.34686.33825.0056 0 .01018-.15221.01018-.33825zm1.1156 5.6506c-.01412-.0141-.02568-.98687-.02568-2.1616v-2.136h1.9925l-.0097 2.1516-.0097 2.1516-.96088.01c-.52848.006-.97244-.002-.98656-.0157zm1.4401-2.1566v-1.6172l-.46039.0105-.46039.0106-.0098 1.6067-.0098 1.6067h.94039zm2.8129 4.1271.16329-.19056-.59549-.59796-.59549-.59797-.35542.3987.59068.59194c.32488.32556.59934.59069.60992.58917.01058-.002.09271-.0885.18252-.19332zm.48502-.63098c.06718-.10275.12215-.19989.12215-.21587 0-.016-.26916-.29783-.59812-.62631l-.59812-.59724-.13475.21065c-.07411.11585-.13477.22414-.13479.24064-7.6e-5.0441 1.1397 1.1754 1.1839 1.1752.02067-.00011.09255-.0843.15973-.18702zm.44639-.73219.10796-.20625-.6197-.62058c-.34083-.34131-.62996-.62057-.64251-.62057-.01255 0-.0655.0973-.11768.2161l-.09487.21611.60541.61072c.33298.3359.61622.61073.62942.61073.0132 0 .07259-.0928.13197-.20626zm.37303-.7906.07057-.20761-.656-.6568c-.3608-.36124-.66678-.6568-.67996-.6568-.01318 0-.05134.1057-.08479.23489l-.06083.2349.62934.62662c.34614.34464.64774.62792.67022.62951.02248.002.07263-.0905.11144-.20471zm.28378-.8662.04686-.2094-1.4717-1.4717-.05444.50832.69034.69109c.37969.38011.70198.6911.71621.6911s.04696-.0942.07273-.2094zm-.6428-1.3503c-.42184-.42222-.77544-.75921-.78577-.74888-.01033.0103.32635.36425.74819.78646.42184.42222.77544.75921.78577.74888.01033-.0103-.32635-.36425-.74819-.78646zm.84084.36823.0245-.17878-.83638-.83699c-.46001-.46035-.84888-.837-.86416-.837-.02548 0-.0092.2446.02912.43693.01699.0853 1.5556 1.6359 1.5975 1.61.01369-.008.03592-.0958.0494-.19416zm-.75345-1.474c-.45244-.44604-.88454-.86833-.96024-.93843-.12806-.11858-.13606-.1212-.11506-.0376.03157.12572 1.867 1.9241 1.8845 1.8465.0084-.0375-.29115-.35975-.80921-.87048zm.81461.39884v-.19955l-1.1275-1.1199c-.62012-.61594-1.1275-1.1129-1.1275-1.1044 0 .009.06038.16679.13417.35168l.13417.33615.96486.96777c.53067.53227.97767.96777.99332.96777.01565 0 .02846-.0898.02846-.19956zm-.05149-.75273c-.01359-.0541-1.3737-1.4335-3.3369-3.3842-2.6846-2.6675-3.3324-3.2928-3.411-3.2924-.0808.00034.15798.25213 1.4251 1.5027.83716.82625 1.7082 1.6888 1.9355 1.9169 1.9951 2.0008 3.3831 3.3757 3.3955 3.3634.0082-.008.0045-.056-.0081-.10622zm-.08012-.5382-.0245-.18196-5.876-5.8345-.19731-.036c-.10852-.0198-.19731-.0238-.19731-.009 0 .0371 6.2861 6.277 6.3047 6.2583.0082-.008.0039-.0968-.0096-.19687zm-.24606-.93919c-.07059-.2139-4.6664-4.7768-4.9054-4.8702-.09158-.0358-.1665-.0499-.1665-.0314 0 .0407 5.0841 5.0784 5.1045 5.058.0079-.008-.0068-.0783-.0326-.15645zm-.27843-.71698c-.08776-.19556-.30265-.4242-1.8732-1.9931-1.6882-1.6864-1.7867-1.7778-2.0362-1.8889-.14421-.0642-.24932-.103-.23358-.0863.29028.30876 4.2177 4.2135 4.2278 4.2034.0078-.008-.03034-.11367-.08487-.23517zm-.73318-1.2857c-.09319-.17412-.38858-.52239-.71332-.86022-.02314-.0241-.04643-.0481-.06981-.072-.23393-.23917-.47654-.46633-.66513-.61457-.5633-.44275-.49181-.34863.46952.61816.54763.55074 1.0006 1.0014 1.0067 1.0014.006 0-.0065-.0327-.02794-.0727zm-4.7932-2.1071c-.61986-.62012-1.1398-1.1275-1.1554-1.1275-.01563 0-.02842.0895-.02842.1988v.19881l.79864.79345c.64379.6396.82779.80181.94898.83656.08268.0237.2349.0832.33825.13211.10335.0489.19627.0904.20647.0921.01021.002-.4886-.50424-1.1085-1.1244zm-.50737.0962c-.44531-.44336-.66202-.63539-.67108-.59466-.01799.0809 1.1571 1.2503 1.2559 1.2498.04989-.00023-.13434-.20662-.58487-.65517zm-.33908.18462-.31863-.32057-.0113.23094c-.01667.34053.02752.37376.53664.40363.10601.006.09509-.0104-.20671-.314zm-22.023 4.8753v-1.7216l-.58308-.65387c-.32069-.35962-.57861-.66556-.57314-.67985.0055-.0143.26785-.31534.58308-.66898l.57314-.64298v-3.4571h2.5557v.52616h-2.0295l-.003 3.1382-.10183.11731c-.056.0645-.27666.31372-.49036.55377l-.38853.43645.2382.27687c.13101.15227.35236.40391.49188.55918l.25369.28232v3.1297h2.0295v.52616h-2.5557zm31.044 1.4586v-.26308h2.0295v-3.128l.38523-.43253c.21188-.23789.4329-.48956.49117-.55926l.10594-.12673-.98153-1.1038-.0196-3.1246-2.0107-.02v-.52494h2.5557v1.7454c0 1.0815.0138 1.7539.03629 1.7678.01996.0123.28333.30179.58527.64324l.54898.62082-.2045.23278c-.11248.12803-.37585.42568-.58527.66143l-.38077.42866v3.446h-2.5557zm-25.759-1.9961c-.23109-.0543-.58603-.2615-.77995-.45542-.10269-.10269-.23894-.30107-.32147-.46807-.14095-.28519-.14325-.29681-.14325-.724 0-.41089.0065-.44782.12083-.68925.14247-.30078.45899-.64894.71826-.79005.48059-.26157 1.1281-.28121 1.579-.0479.06905.0357.14674.0568.17266.0469.02592-.01.21466-.20174.41942-.4262.61005-.66874 5.1907-5.7281 5.5121-6.0881.07233-.081.07199-.0828-.07186-.37388-.14349-.29034-.14454-.29574-.14454-.7454 0-.43057.0059-.46536.11893-.70399.29518-.62305.86762-.98659 1.5535-.98659.50805 0 .92774.18286 1.2658.5515.40459.44123.54866 1.1202.35293 1.6633-.0447.12403-.08904.25087-.09853.28187-.01188.0388.20736.21701.703.57146l.72026.51508.09739-.0686c.58671-.4131 1.2667-.45022 1.8973-.10357l.23989.13185.40787-.41977c1.2295-1.2654 2.0251-2.0816 2.3922-2.4545l.41228-.41869-.09728-.20563c-.25036-.52922-.22792-1.1219.06116-1.6152.14549-.24826.4842-.54569.7695-.67572.32909-.15.81394-.18671 1.1575-.0876.78446.22621 1.3114.96425 1.246 1.745-.05463.65165-.48437 1.2407-1.0717 1.469-.45972.17871-1.0902.13076-1.485-.11293-.09956-.0615-.19468-.11173-.21138-.11173-.0167 0-.22952.20718-.47293.46039-.24341.25322-.96506.99657-1.6037 1.6519l-1.1611 1.1915.07268.1427c.34811.68345.2103 1.4687-.35091 1.9994-.11483.1086-.32136.25023-.46118.31626-.2409.11376-.27526.11958-.70617.11958-.44685 0-.45671-.002-.73287-.13909-.85397-.42431-1.2109-1.3991-.81812-2.2346.0678-.14424.07226-.17713.02765-.20386-.02926-.0175-.35545-.24978-.72488-.51612l-.67168-.48425-.18281.12302c-.52952.35634-1.1357.40121-1.7208.12739-.19493-.0912-.25154-.10422-.28562-.0656-.27209.30853-.7914.88485-1.1102 1.2321-.38884.42352-1.5898 1.7496-2.7378 3.0231-.31792.35268-.72512.8019-.90488.99827-.81026.88515-1.1667 1.2876-1.1667 1.3175 0 .0177.04154.0934.09231.16823.613.90331.13854 2.2094-.92256 2.5397-.24572.0765-.69129.0903-.95053.0294zm.92197-.58722c.20888-.0926.44754-.322.56587-.54389.07225-.13547.08603-.21843.08612-.51832 7.5e-5-.31987-.01041-.37493-.10084-.52875-.24099-.40992-.58816-.61436-1.0456-.61572-.23295-.00069-.31912.0173-.49461.10315-.24484.11978-.45602.33648-.57081.58572-.1152.25011-.1104.70927.0099.94418.1543.30139.43044.53675.75511.64358.1608.0529.60614.0137.79485-.07zm12.311-5.9166c.2897-.10839.57891-.40036.67116-.67757.10345-.31089.08346-.63006-.05738-.91614-.20516-.41675-.57553-.63901-1.0539-.63244-.47453.007-.81346.22038-1.0224.64514-.10731.21811-.12333.28784-.12004.52241.003.21276.02557.31519.10546.47849.26576.54319.90489.7942 1.4771.58011zm-4.1891-3.1446c.05263-.0208-.07954-.17108-.66572-.75668-.40226-.40186-.74394-.71812-.75927-.70278-.01534.0153-.03496.13906-.04362.27495l-.01573.24706.96658.96873.22604-.003c.12432-.001.2556-.0143.29172-.0286zm.5699-.34743c.05351-.0636.0973-.13563.0973-.16007 0-.0244-.35406-.39819-.78681-.83057-.85978-.85905-.77804-.80987-1.0091-.60717l-.08587.0753.81842.81905c.45013.45048.82974.81905.84358.81905.01384 0 .06895-.052.12246-.11563zm-.44766-1.1998c-.39082-.39122-.71903-.70286-.72937-.69253-.01033.0103.30097.33889.69179.73011.39082.39123.71904.70287.72937.69253.01034-.0103-.30097-.33888-.69179-.73011zm.69815.1673c-.03691-.165-.08361-.2307-.35812-.50377-.29834-.29679-.32871-.31672-.55312-.36297-.1306-.0269-.25113-.0352-.26786-.0185-.01672.0167.24531.30382.58231.638.66443.65886.69136.67002.59678.24726zm9.072-1.0211c.04663-.0261-.09194-.18278-.67564-.76397-.40386-.40212-.74868-.73608-.76625-.74212-.04322-.0149-.07116.0669-.10182.29798l-.02573.19395 1.1199 1.087.19545-.02c.1075-.011.22185-.0348.25411-.0528zm.54314-.39381c.0638-.0867.116-.1757.116-.19765 0-.022-.3443-.38392-.76512-.80436l-.76512-.76444-.10869.0565c-.05978.0311-.15097.10182-.20264.15718l-.09396.10066.82683.80483c.45476.44265.83805.80486.85177.80491.01371 3e-5.07714-.0709.14094-.15766zm.22872-.79124c-2e-5-.13874-.03174-.26434-.10687-.42315-.18458-.39016-.52642-.61545-.98071-.64634l-.24659-.0168.63891.63855c.3514.3512.6516.64.6671.64179.0155.002.02817-.0856.02816-.19408z" stroke-width=".037583"/>
</svg>
